<svg width="54" height="29" viewBox="0 0 54 29" fill="none" xmlns="http://www.w3.org/2000/svg">
<path d="M15.388 5.90041H16.4468C17.112 5.89026 17.6351 5.71506 18.0159 5.37483C18.3968 5.03459 18.5872 4.57502 18.5872 3.99612C18.5872 2.69612 17.9397 2.04612 16.6448 2.04612C16.0354 2.04612 15.5479 2.22131 15.1823 2.5717C14.8218 2.91702 14.6415 3.37659 14.6415 3.95042H13.2323C13.2323 3.0719 13.5522 2.34319 14.1921 1.76428C14.837 1.1803 15.6546 0.888306 16.6448 0.888306C17.6909 0.888306 18.511 1.16506 19.1052 1.71858C19.6993 2.27209 19.9964 3.04143 19.9964 4.02659C19.9964 4.50901 19.839 4.9762 19.5241 5.42815C19.2144 5.8801 18.7903 6.2178 18.2521 6.44124C18.8614 6.6342 19.3312 6.95413 19.6612 7.401C19.9964 7.84788 20.164 8.39377 20.164 9.0387C20.164 10.034 19.839 10.8237 19.189 11.4076C18.539 11.9916 17.6935 12.2836 16.6524 12.2836C15.6114 12.2836 14.7634 12.0018 14.1083 11.4381C13.4583 10.8744 13.1333 10.1305 13.1333 9.20627H14.5501C14.5501 9.79026 14.7405 10.2574 15.1214 10.6078C15.5022 10.9582 16.0126 11.1334 16.6524 11.1334C17.3329 11.1334 17.8534 10.9557 18.214 10.6002C18.5745 10.2448 18.7548 9.7344 18.7548 9.06917C18.7548 8.42424 18.5567 7.92913 18.1606 7.58381C17.7646 7.2385 17.1933 7.06077 16.4468 7.05061H15.388V5.90041Z" fill="white"/>
<path d="M27.6288 1.03303V2.22893H27.3698C26.2729 2.24924 25.3995 2.57424 24.7495 3.20393C24.0995 3.83362 23.7237 4.71975 23.6222 5.86233C24.2062 5.19202 25.0034 4.85686 26.014 4.85686C26.9788 4.85686 27.7481 5.19709 28.322 5.87756C28.9009 6.55803 29.1903 7.43655 29.1903 8.51311C29.1903 9.65569 28.878 10.5698 28.2534 11.2553C27.6339 11.9408 26.8011 12.2836 25.755 12.2836C24.6937 12.2836 23.8329 11.8774 23.1728 11.0649C22.5126 10.2473 22.1825 9.19612 22.1825 7.91135V7.37053C22.1825 5.32913 22.6167 3.77014 23.4851 2.69358C24.3585 1.61194 25.656 1.05842 27.3774 1.03303H27.6288ZM25.7778 6.02991C25.2954 6.02991 24.8511 6.17463 24.4448 6.46409C24.0386 6.75354 23.7567 7.11663 23.5993 7.55334V8.07131C23.5993 8.98538 23.805 9.7217 24.2163 10.2803C24.6276 10.8389 25.1405 11.1182 25.755 11.1182C26.3897 11.1182 26.8874 10.8846 27.2479 10.4174C27.6136 9.95022 27.7964 9.33831 27.7964 8.58167C27.7964 7.81995 27.611 7.20549 27.2403 6.73831C26.8747 6.26604 26.3872 6.02991 25.7778 6.02991Z" fill="white"/>
<path d="M37.813 7.401C37.813 9.05139 37.5312 10.2778 36.9675 11.0801C36.4038 11.8824 35.5228 12.2836 34.3243 12.2836C33.1411 12.2836 32.2651 11.8926 31.6964 11.1106C31.1276 10.3235 30.8331 9.15042 30.8128 7.59143V5.70999C30.8128 4.07991 31.0946 2.86877 31.6583 2.07659C32.222 1.2844 33.1056 0.888306 34.3091 0.888306C35.5024 0.888306 36.381 1.2717 36.9446 2.0385C37.5083 2.80022 37.7978 3.97834 37.813 5.57288V7.401ZM36.4038 5.47385C36.4038 4.28049 36.2362 3.41213 35.9011 2.86877C35.5659 2.32034 35.0353 2.04612 34.3091 2.04612C33.588 2.04612 33.0624 2.3178 32.7323 2.86116C32.4022 3.40452 32.2321 4.23987 32.222 5.36721V7.6219C32.222 8.82034 32.3946 9.70647 32.7399 10.2803C33.0903 10.849 33.6185 11.1334 34.3243 11.1334C35.02 11.1334 35.5354 10.8643 35.8706 10.326C36.2108 9.78772 36.3886 8.93967 36.4038 7.78186V5.47385Z" fill="white"/>
<path d="M39.6868 2.86877C39.6868 2.34065 39.8747 1.87854 40.2505 1.48245C40.6313 1.08635 41.0909 0.888306 41.6292 0.888306C42.1573 0.888306 42.6067 1.08635 42.9774 1.48245C43.3532 1.87346 43.5411 2.33557 43.5411 2.86877C43.5411 3.40706 43.3532 3.86663 42.9774 4.24749C42.6067 4.62834 42.1573 4.81877 41.6292 4.81877C41.096 4.81877 40.639 4.62834 40.2581 4.24749C39.8772 3.86663 39.6868 3.40706 39.6868 2.86877ZM41.6292 3.84377C41.9034 3.84377 42.1345 3.75491 42.3224 3.57717C42.5103 3.39436 42.6042 3.15823 42.6042 2.86877C42.6042 2.57424 42.5103 2.33303 42.3224 2.14514C42.1345 1.95217 41.9034 1.85569 41.6292 1.85569C41.3499 1.85569 41.1138 1.95725 40.9208 2.16038C40.7329 2.35842 40.639 2.59456 40.639 2.86877C40.639 3.14299 40.7329 3.37405 40.9208 3.56194C41.1138 3.74983 41.3499 3.84377 41.6292 3.84377Z" fill="white"/>
<path d="M5.33333 6.19684C2.59533 8.3931 1 11.0295 1 13.8646C1 21.523 12.6406 27.7313 27 27.7313C41.3594 27.7313 53 21.523 53 13.8646C53 11.0295 51.4047 8.3931 48.6667 6.19684M5.33333 6.19684H1M5.33333 6.19684V10.3979" stroke="white" stroke-linecap="round" stroke-linejoin="round"/>
</svg>
