<svg width="100" height="133" viewBox="0 0 100 133" fill="none" xmlns="http://www.w3.org/2000/svg">
<path d="M74.3818 34.8846C74.3818 29.3618 69.9047 24.8846 64.3818 24.8846H49.1233V34.7074L51.9298 36.8123V46.6351L49.1233 48.74V59.966H74.3818V34.8846Z" fill="#C4C4C4"/>
<rect x="25.7676" y="25.3846" width="48.1139" height="81.792" rx="9.5" stroke="white"/>
<rect x="46.8164" y="35.2074" width="6.01627" height="13.0325" rx="3.00814" stroke="white"/>
<line x1="25.2676" y1="59.4661" x2="72.9782" y2="59.4661" stroke="white"/>
<rect x="49.123" y="47.3367" width="1.40325" height="11.226" fill="white"/>
<rect x="49.123" y="24.8846" width="1.40325" height="11.226" fill="white"/>
<path d="M17.1787 66.4457L1 66.4457M1 66.4457L5.7463 71.192M1 66.4457L5.7463 61.6994" stroke="white" stroke-linecap="round" stroke-linejoin="round"/>
<path d="M82.3887 66.1156L98.5674 66.1156M98.5674 66.1156L93.8211 61.3693M98.5674 66.1156L93.8211 70.8619" stroke="white" stroke-linecap="round" stroke-linejoin="round"/>
<path d="M49.6184 16.8367L49.6184 0.657959M49.6184 0.657959L44.8721 5.40426M49.6184 0.657959L54.3647 5.40426" stroke="white" stroke-linecap="round" stroke-linejoin="round"/>
<path d="M49.9485 115.725L49.9485 131.903M49.9485 131.903L54.6948 127.157M49.9485 131.903L45.2022 127.157" stroke="white" stroke-linecap="round" stroke-linejoin="round"/>
</svg>
