<svg width="100" height="112" viewBox="0 0 100 112" fill="none" xmlns="http://www.w3.org/2000/svg">
<path d="M25.2676 38.723C25.2676 33.2002 29.7447 28.723 35.2676 28.723H50.5262V38.5458L47.7196 40.6507V50.4735L50.5262 52.5783V63.8044H25.2676V38.723Z" fill="#C4C4C4"/>
<rect x="25.7676" y="29.223" width="48.1139" height="81.792" rx="9.5" stroke="white"/>
<rect x="46.8164" y="39.0458" width="6.01627" height="13.0325" rx="3.00814" stroke="white"/>
<line x1="25.2676" y1="63.3044" x2="72.9782" y2="63.3044" stroke="white"/>
<rect x="49.123" y="51.175" width="1.40325" height="11.226" fill="white"/>
<rect x="49.123" y="28.723" width="1.40325" height="11.226" fill="white"/>
<path d="M17.1787 70.2841L1 70.2841M1 70.2841L5.7463 75.0304M1 70.2841L5.7463 65.5378" stroke="white" stroke-linecap="round" stroke-linejoin="round"/>
<path d="M82.3887 69.9539L98.5674 69.9539M98.5674 69.9539L93.8211 65.2076M98.5674 69.9539L93.8211 74.7002" stroke="white" stroke-linecap="round" stroke-linejoin="round"/>
<path d="M39.7223 4.71561H40.5795C41.118 4.70739 41.5415 4.56556 41.8498 4.29011C42.1581 4.01467 42.3123 3.64261 42.3123 3.17395C42.3123 2.12151 41.7881 1.59529 40.7398 1.59529C40.2465 1.59529 39.8518 1.73712 39.5558 2.02079C39.2639 2.30034 39.118 2.6724 39.118 3.13695H37.9771C37.9771 2.42573 38.2361 1.83579 38.7541 1.36712C39.2762 0.894347 39.9381 0.657959 40.7398 0.657959C41.5867 0.657959 42.2506 0.882014 42.7316 1.33012C43.2126 1.77823 43.4531 2.40106 43.4531 3.19862C43.4531 3.58917 43.3257 3.96739 43.0708 4.33328C42.82 4.69917 42.4767 4.97255 42.041 5.15344C42.5343 5.30966 42.9146 5.56866 43.1818 5.93044C43.4531 6.29222 43.5888 6.73416 43.5888 7.25627C43.5888 8.06204 43.3257 8.70132 42.7995 9.17409C42.2732 9.64687 41.5887 9.88326 40.746 9.88326C39.9032 9.88326 39.2166 9.65509 38.6863 9.19876C38.1601 8.74243 37.897 8.14015 37.897 7.39193H39.044C39.044 7.86471 39.1981 8.24293 39.5065 8.5266C39.8148 8.81026 40.228 8.9521 40.746 8.9521C41.2968 8.9521 41.7182 8.80821 42.0101 8.52043C42.302 8.23265 42.448 7.81949 42.448 7.28093C42.448 6.75883 42.2876 6.35799 41.967 6.07844C41.6463 5.79888 41.1838 5.655 40.5795 5.64677H39.7223V4.71561Z" fill="white"/>
<path d="M49.6321 0.775125V1.74329H49.4224C48.5344 1.75973 47.8273 2.02284 47.3011 2.53262C46.7749 3.04239 46.4707 3.75978 46.3884 4.68478C46.8612 4.14211 47.5067 3.87078 48.3248 3.87078C49.1059 3.87078 49.7287 4.14622 50.1933 4.69711C50.6619 5.248 50.8963 5.95922 50.8963 6.83077C50.8963 7.75577 50.6434 8.49576 50.1378 9.05076C49.6362 9.60576 48.962 9.88326 48.1151 9.88326C47.2559 9.88326 46.5591 9.55437 46.0246 8.8966C45.4902 8.23471 45.2229 7.38371 45.2229 6.34361V5.90577C45.2229 4.25311 45.5744 2.99101 46.2774 2.11945C46.9846 1.24379 48.0349 0.795681 49.4286 0.775125H49.6321ZM48.1336 4.82044C47.743 4.82044 47.3833 4.93761 47.0544 5.17194C46.7256 5.40627 46.4974 5.70022 46.3699 6.05377V6.4731C46.3699 7.2131 46.5364 7.80921 46.8694 8.26143C47.2024 8.71365 47.6177 8.93976 48.1151 8.93976C48.629 8.93976 49.0319 8.75065 49.3238 8.37243C49.6198 7.99421 49.7678 7.49882 49.7678 6.88627C49.7678 6.26961 49.6177 5.77216 49.3176 5.39394C49.0216 5.01161 48.6269 4.82044 48.1336 4.82044Z" fill="white"/>
<path d="M57.8769 5.93044C57.8769 7.26655 57.6487 8.25938 57.1924 8.90893C56.7361 9.55848 56.0228 9.88326 55.0526 9.88326C54.0947 9.88326 53.3855 9.5667 52.9251 8.9336C52.4646 8.29638 52.2262 7.34671 52.2098 6.08461V4.56144C52.2098 3.24178 52.4379 2.26129 52.8943 1.61996C53.3506 0.978624 54.0659 0.657959 55.0402 0.657959C56.0064 0.657959 56.7176 0.968347 57.1739 1.58912C57.6302 2.20579 57.8646 3.15956 57.8769 4.45045V5.93044ZM56.7361 4.37028C56.7361 3.40417 56.6004 2.70117 56.3291 2.26129C56.0577 1.81729 55.6281 1.59529 55.0402 1.59529C54.4565 1.59529 54.031 1.81523 53.7637 2.25512C53.4965 2.69501 53.3588 3.37128 53.3506 4.28395V6.10927C53.3506 7.07949 53.4904 7.79688 53.7699 8.26143C54.0536 8.72187 54.4811 8.9521 55.0526 8.9521C55.6158 8.9521 56.0331 8.73421 56.3044 8.29843C56.5798 7.86266 56.7237 7.1761 56.7361 6.23877V4.37028Z" fill="white"/>
<path d="M59.3939 2.26129C59.3939 1.83373 59.546 1.45962 59.8502 1.13896C60.1586 0.818292 60.5306 0.657959 60.9664 0.657959C61.3939 0.657959 61.7578 0.818292 62.0579 1.13896C62.3621 1.45551 62.5142 1.82962 62.5142 2.26129C62.5142 2.69706 62.3621 3.06912 62.0579 3.37745C61.7578 3.68578 61.3939 3.83995 60.9664 3.83995C60.5347 3.83995 60.1647 3.68578 59.8564 3.37745C59.5481 3.06912 59.3939 2.69706 59.3939 2.26129ZM60.9664 3.05062C61.1884 3.05062 61.3754 2.97867 61.5276 2.83478C61.6797 2.68678 61.7557 2.49562 61.7557 2.26129C61.7557 2.02284 61.6797 1.82757 61.5276 1.67546C61.3754 1.51923 61.1884 1.44112 60.9664 1.44112C60.7403 1.44112 60.5491 1.52334 60.3929 1.68779C60.2408 1.84812 60.1647 2.03929 60.1647 2.26129C60.1647 2.48329 60.2408 2.67034 60.3929 2.82245C60.5491 2.97456 60.7403 3.05062 60.9664 3.05062Z" fill="white"/>
<path d="M31.5824 4.95557C29.3657 6.73359 28.0742 8.86795 28.0742 11.1632C28.0742 17.3631 37.4981 22.3892 49.123 22.3892C60.748 22.3892 70.1718 17.3631 70.1718 11.1632C70.1718 8.86795 68.8803 6.73359 66.6637 4.95557M31.5824 4.95557H28.0742M31.5824 4.95557V8.35664" stroke="white" stroke-linecap="round" stroke-linejoin="round"/>
</svg>
