<svg width="27" height="24" viewBox="0 0 27 24" fill="none" xmlns="http://www.w3.org/2000/svg">
<path d="M4 12C4 5.92487 8.92487 1 15 1C21.0751 1 26 5.92487 26 12C26 18.0751 21.0751 23 15 23C11.3565 23 8.12673 21.2286 6.12496 18.5" stroke="#3E3E3E" stroke-linecap="round" stroke-linejoin="round"/>
<path d="M7.14645 8.64645C7.34171 8.45118 7.65829 8.45118 7.85355 8.64645C8.04882 8.84171 8.04882 9.15829 7.85355 9.35355L7.14645 8.64645ZM4 12.5L4.35355 12.8536C4.25106 12.956 4.10914 13.009 3.96456 12.9987C3.81997 12.9885 3.68697 12.916 3.6 12.8L4 12.5ZM0.6 8.8C0.434315 8.57909 0.479086 8.26569 0.7 8.1C0.920914 7.93431 1.23431 7.97909 1.4 8.2L0.6 8.8ZM7.85355 9.35355L4.35355 12.8536L3.64645 12.1464L7.14645 8.64645L7.85355 9.35355ZM3.6 12.8L0.6 8.8L1.4 8.2L4.4 12.2L3.6 12.8Z" fill="#3E3E3E"/>
</svg>
